<?xml version="1.0" encoding="utf-8"?>
<svg version="1.1" id="Layer_1" xmlns="http://www.w3.org/2000/svg" xmlns:xlink="http://www.w3.org/1999/xlink" x="0px" y="0px"
	 viewBox="0 0 128 128" style="enable-background:new 0 0 128 128;" xml:space="preserve">
<g>
	<path fill="#FFFFFF" d="M90.6,48H52.5L48,52.5v23l4.5,4.5h38.1v10.6H48.6L37.1,79V48.6l11.5-11.5h41.9V48z M112.3,22.1
		v12.5h-3.2V22.7l-1.3-1.3h-4.5v12.8h-3.2V21.4h-6.1v12.8h-3.2v-16h17.9C97.3,7,81.6,0,64,0C28.8,0,0,28.8,0,64s28.8,64,64,64
		s64-28.8,64-64C128,48,121.9,33.3,112.3,22.1L112.3,22.1z"/>
</g>
</svg>
