<?xml version="1.0" encoding="UTF-8" standalone="no"?>
<svg width="16px" height="16px" viewBox="0 0 16 16" version="1.1" xmlns="http://www.w3.org/2000/svg" xmlns:xlink="http://www.w3.org/1999/xlink">
    <!-- Generator: Sketch 46.2 (44496) - http://www.bohemiancoding.com/sketch -->
    <title>facebook</title>
    <desc>Created with Sketch.</desc>
    <defs></defs>
    <g id="Symbols" stroke="none" stroke-width="1" fill="none" fill-rule="evenodd">
        <g id="Social-Media" transform="translate(-4.000000, -4.000000)">
            <g id="Buttons/SocialMedia">
                <rect id="Rectangle" x="0" y="0" width="24" height="24" rx="2"></rect>
                <g id="icons/facebook" transform="translate(4.000000, 4.000000)" fill-rule="evenodd" fill="#FFFFFF">
                    <path d="M15.1169949,16 L11.0397429,16 L11.0397429,9.80371006 L13.1195554,9.80371006 L13.4311787,7.38917491 L11.0397429,7.38917491 L11.0397429,5.8476206 C11.0397429,5.14853859 11.234126,4.67173327 12.2365504,4.67173327 L13.5152951,4.67129743 L13.5152951,2.51172673 C13.2938901,2.48208984 12.5350985,2.4162785 11.6520934,2.4162785 C9.80850426,2.4162785 8.54632127,3.54160878 8.54632127,5.60834627 L8.54632127,7.38917491 L6.46127864,7.38917491 L6.46127864,9.80371006 L8.54632127,9.80371006 L8.54632127,16 L0.883005094,16 C0.39530386,16 0,15.6046961 0,15.1169949 L0,0.883005094 C0,0.39530386 0.39530386,0 0.883005094,0 L15.1169949,0 C15.6046961,0 16,0.39530386 16,0.883005094 L16,15.1169949 C16,15.6046961 15.6046961,16 15.1169949,16 Z" id="Facebook"></path>
                </g>
            </g>
        </g>
    </g>
</svg>