<?xml version="1.0" encoding="UTF-8" standalone="no"?>
<svg width="16px" height="16px" viewBox="0 0 16 16" version="1.1" xmlns="http://www.w3.org/2000/svg" xmlns:xlink="http://www.w3.org/1999/xlink">
    <!-- Generator: Sketch 46.2 (44496) - http://www.bohemiancoding.com/sketch -->
    <title>linkedin</title>
    <desc>Created with Sketch.</desc>
    <defs></defs>
    <g id="Symbols" stroke="none" stroke-width="1" fill="none" fill-rule="evenodd">
        <g id="Social-Media" transform="translate(-74.000000, -4.000000)">
            <g id="Buttons/SocialMedia" transform="translate(70.000000, 0.000000)">
                <rect id="Rectangle" x="0" y="0" width="24" height="24" rx="2"></rect>
                <g id="icons/linkedIn" transform="translate(4.000000, 4.000000)" fill-rule="evenodd" fill="#FFFFFF">
                    <path d="M0.403361345,5.13104929 L3.52182163,5.13104929 L3.52182163,16 L0.403361345,16 L0.403361345,5.13104929 Z M12.0422879,5.02656767 C14.2586067,5.02656767 16,6.58997525 16,9.95628709 L16,16 L12.4638655,16 L12.4638655,10.3751677 C12.4638655,8.90336047 11.9108702,7.89814235 10.6942803,7.89814235 C9.76394687,7.89814235 9.24651667,8.57655724 9.00580103,9.2301637 C8.91558688,9.46441244 8.92946598,9.79121567 8.92946598,10.118496 L8.92946598,16 L5.42629439,16 C5.42629439,16 5.47140146,6.03655664 5.42629439,5.13104929 L8.92946598,5.13104929 L8.92946598,6.8366282 C9.13635131,6.09094433 10.2557875,5.02656767 12.0422879,5.02656767 Z M1.90490648,0 C3.05557062,0 3.76297099,0.811521603 3.78552453,1.88448579 C3.78552453,2.93741241 3.05557062,3.77135701 1.88322038,3.77135701 L1.86066685,3.77135701 C0.732122526,3.77135701 0,2.94075201 0,1.8873483 C0,0.813429943 0.753374898,0 1.90490648,0 Z" id="Linkedin"></path>
                </g>
            </g>
        </g>
    </g>
</svg>