<?xml version="1.0" encoding="UTF-8" standalone="no"?>
<svg width="26px" height="16px" viewBox="0 0 26 16" version="1.1" xmlns="http://www.w3.org/2000/svg" xmlns:xlink="http://www.w3.org/1999/xlink">
    <!-- Generator: Sketch 46.2 (44496) - http://www.bohemiancoding.com/sketch -->
    <title>google+</title>
    <desc>Created with Sketch.</desc>
    <defs></defs>
    <g id="Symbols" stroke="none" stroke-width="1" fill="none" fill-rule="evenodd">
        <g id="Social-Media" transform="translate(-34.000000, -4.000000)">
            <g id="Buttons/SocialMedia" transform="translate(30.000000, 0.000000)">
                <rect id="Rectangle" x="0" y="0" width="34" height="24" rx="2"></rect>
                <g id="icons/google+" transform="translate(4.000000, 4.000000)" fill-rule="evenodd" fill="#FFFFFF">
                    <path d="M7.98598076,9.58417384 L7.98598076,6.41582616 L15.6554383,6.41582616 C16.1894155,10.2496203 14.5781378,16 7.98598076,16 C3.57584018,16 0,12.417929 0,7.99968846 C0,3.58144788 3.57584018,0 7.98598076,0 C10.0552202,0 11.9406519,0.788815764 13.3593987,2.08232408 C11.6883056,3.66307099 11.7431364,3.75715565 11.086413,4.4151252 C10.2658203,3.73534795 9.37108143,3.24747848 7.98598076,3.24747848 C5.36594104,3.24747848 3.3210016,5.3752872 3.3210016,7.99968846 C3.3210016,10.6247128 5.36594104,12.7525215 7.98598076,12.7525215 C10.5748666,12.7525215 11.626621,11.6340979 12.3032828,9.5798123 C11.054013,9.5798123 7.98598076,9.58417384 7.98598076,9.58417384 Z M22.3759492,6.57408778 L25.1430352,6.57408778 L25.1430352,8.55422719 L22.3759492,8.55422719 L22.3759492,11.4060516 L20.3995483,11.4060516 L20.3995483,8.55422719 L17.5527084,8.55422719 L17.5527084,6.57408778 L20.3995483,6.57408778 L20.3995483,3.80201721 L22.3759492,3.80201721 L22.3759492,6.57408778 Z" id="Google+"></path>
                </g>
            </g>
        </g>
    </g>
</svg>