<?xml version="1.0" encoding="UTF-8" standalone="no"?>
<svg width="16px" height="14px" viewBox="0 0 16 14" version="1.1" xmlns="http://www.w3.org/2000/svg" xmlns:xlink="http://www.w3.org/1999/xlink">
    <!-- Generator: Sketch 46.2 (44496) - http://www.bohemiancoding.com/sketch -->
    <title>twitter</title>
    <desc>Created with Sketch.</desc>
    <defs></defs>
    <g id="Symbols" stroke="none" stroke-width="1" fill="none" fill-rule="evenodd">
        <g id="Social-Media" transform="translate(-104.000000, -5.000000)">
            <g id="Buttons/SocialMedia" transform="translate(100.000000, 0.000000)">
                <rect id="Rectangle" x="0" y="0" width="24" height="24" rx="2"></rect>
                <g id="icons/twitter" transform="translate(4.000000, 4.000000)" fill-rule="evenodd" fill="#FFFFFF">
                    <path d="M15.5587002,1.24692281 C14.9238779,1.6318319 14.2224121,1.91207647 13.4726724,2.06245161 C12.8754439,1.4084052 12.0218941,1 11.0769231,1 C9.2655862,1 7.7955838,2.50716899 7.7955838,4.36592529 C7.7955838,4.62993619 7.82377914,4.88625744 7.88016981,5.13275305 C5.15205725,4.99220356 2.73366619,3.6533522 1.11371586,1.61474381 C0.830908071,2.11371586 0.66942568,2.69214749 0.66942568,3.30860011 C0.66942568,4.47571623 1.24871172,5.50655488 2.13002964,6.11019144 C1.5926094,6.09395776 1.08552052,5.94059221 0.642084746,5.69025178 L0.642084746,5.73169039 C0.642084746,7.36317518 1.77374309,8.72381385 3.27664006,9.03225376 C3.00152191,9.11085894 2.71102448,9.15058874 2.41155582,9.15058874 C2.20009078,9.15058874 1.99375217,9.13051024 1.79382159,9.09078044 C2.21162524,10.4274958 3.42317037,11.4010894 4.85985101,11.4271487 C3.73673671,12.3306811 2.32056177,12.8689558 0.783061437,12.8689558 C0.518196139,12.8689558 0.256321256,12.8535765 0,12.8228179 C1.45248712,13.776333 3.17881078,14.3338317 5.03201346,14.3338317 C11.070515,14.3338317 14.3715056,9.20527061 14.3715056,4.75724241 C14.3715056,4.61071209 14.3689424,4.46418177 14.3633888,4.32064187 C15.0046191,3.84602035 15.5616907,3.25349104 16,2.57851173 C15.4121699,2.84636745 14.7790564,3.02750113 14.1151844,3.10824233 C14.7931541,2.69214749 15.3134862,2.03254746 15.5587002,1.24692281" id="Twitter"></path>
                </g>
            </g>
        </g>
    </g>
</svg>