<svg xmlns="http://www.w3.org/2000/svg" xml:space="preserve" width="81" height="25" viewBox="0 0 81 25">
  <path d="M8.24 24.29c-1.34 0-2.52-.21-3.53-.62s-1.84-.99-2.51-1.72a7.136 7.136 0 0 1-1.49-2.57c-.33-1.03-.5-2.1-.49-3.18 0-.94.16-1.9.49-2.86.33-.96.83-1.84 1.49-2.6.66-.78 1.5-1.41 2.51-1.9s2.19-.73 3.53-.73c.53 0 1.01.01 1.45.04s.86.06 1.26.12.79.13 1.18.22c.38.09.78.19 1.2.3.02.43.07.96.17 1.58.1.62.22 1.26.38 1.9-.12.06-.25.09-.38.1-.12 0-.24-.01-.35-.05-.1-.03-.17-.12-.2-.26-.29-1.06-.74-1.81-1.37-2.26s-1.53-.67-2.71-.67c-1-.01-1.87.15-2.63.47s-1.4.77-1.92 1.34-.91 1.27-1.18 2.08c-.26.81-.4 1.71-.4 2.7 0 1.1.17 2.12.5 3.05.34.93.79 1.73 1.36 2.4.55.65 1.23 1.19 1.99 1.56.76.37 1.57.55 2.44.55.69 0 1.27-.07 1.74-.2s.86-.33 1.18-.59c.31-.26.58-.57.79-.95s.42-.8.61-1.28c.11-.24.3-.36.58-.36.16 0 .32.04.46.12-.19.56-.38 1.18-.58 1.85-.19.66-.35 1.34-.48 2.02-.78.13-1.58.23-2.4.3-.82.06-1.71.1-2.69.1zm17.81-.94c.18 0 .27.17.29.5-.42.29-.94.43-1.58.43-.35 0-.66-.05-.91-.16-.24-.09-.46-.24-.65-.42-.17-.17-.31-.38-.41-.6-.1-.22-.16-.46-.19-.7-.4.72-.88 1.21-1.43 1.48s-1.19.4-1.91.4c-.32 0-.66-.03-1.02-.08s-.7-.17-1.02-.35a2.24 2.24 0 0 1-.79-.74c-.21-.32-.31-.74-.31-1.27 0-.59.14-1.09.42-1.5s.64-.74 1.08-1.01.92-.48 1.44-.64 1.02-.3 1.5-.41c.27-.05.52-.1.76-.16s.44-.12.61-.18c.22-.06.36-.15.42-.26s.08-.33.08-.65c0-.75-.14-1.37-.43-1.86s-.8-.73-1.54-.73c-.27 0-.5.03-.7.1-.18.06-.35.16-.48.3-.13.14-.24.32-.34.54-.11.26-.2.52-.29.79-.04.17-.16.31-.32.38-.17.08-.45.18-.85.29-.12.04-.24.07-.36.1s-.24.04-.36.05c-.16 0-.24-.17-.24-.5 0-.35.14-.7.41-1.06.27-.35.62-.66 1.04-.94.43-.28.89-.5 1.38-.66.46-.16.93-.25 1.42-.25.56 0 1.06.05 1.51.14s.83.27 1.15.53.56.6.73 1.03c.17.43.25.99.25 1.68v4.13c0 .56.02.96.06 1.21.04.25.1.44.18.59.11.22.24.37.37.44s.27.11.42.11c.18 0 .3-.02.37-.05.08-.02.16-.04.24-.04zm-3.63-4.68-.77.12c-.42.08-.82.18-1.21.29-.37.1-.72.26-1.04.47-.3.2-.55.45-.73.76s-.28.68-.28 1.13c0 .61.16 1.07.47 1.39s.7.48 1.16.48c.64-.01 1.25-.29 1.67-.78.22-.26.4-.56.53-.88.14-.34.2-.7.2-1.1v-1.88zm10.2 5.45c-.42-.03-.84-.06-1.27-.08-.88-.05-1.75-.05-2.63 0-.46.02-.88.05-1.28.08-.03-.13-.04-.25-.05-.38 0-.16.07-.26.22-.29.35-.06.68-.16.98-.28.3-.12.46-.31.46-.56V9.7c0-.51-.1-.86-.3-1.04-.2-.18-.58-.3-1.14-.35-.21-.04-.31-.15-.31-.34 0-.1.02-.21.05-.34.21 0 .5-.01.86-.04.37-.02.7-.05 1.01-.08.37-.05.7-.11.98-.19s.5-.12.62-.12c.14 0 .24.03.29.1.05.08.08.17.07.26 0 .27-.02.59-.07.95s-.07.78-.07 1.26v12.84c0 .26.15.44.44.56.3.12.63.21 1 .28.13.03.19.13.19.29 0 .09-.01.22-.05.38zM36.7 24c-.27 0-.55 0-.83.01-.47.01-.94.04-1.4.08-.11.01-.22.02-.34.02 0-.02-.01-.07-.02-.17-.01-.07-.02-.14-.02-.22 0-.16.07-.26.22-.29.42-.08.75-.18 1.01-.29s.38-.3.38-.55v-6.53c0-.48-.08-.82-.25-1.03-.17-.21-.53-.34-1.09-.38-.21-.03-.31-.14-.31-.34 0-.08.02-.18.05-.31.21 0 .5-.01.88-.04s.68-.05.92-.08c.37-.06.7-.13.98-.2.29-.07.5-.11.62-.11.22 0 .34.12.34.36 0 .22-.02.49-.07.8-.05.41-.08.82-.07 1.24v6.62c0 .26.12.44.37.55s.6.21 1.04.29c.13.03.19.13.19.29 0 .05 0 .12-.01.22s-.02.15-.04.17c-.05 0-.16-.01-.32-.02-.46-.04-.93-.07-1.39-.08-.29-.01-.56-.01-.84-.01zM35.31 9.58c0-.38.13-.72.4-1s.6-.42 1-.42c.38 0 .7.14.96.42s.38.61.38 1c0 .42-.13.75-.38 1.01s-.6.39-.96.38c-.4 0-.73-.13-1-.38s-.4-.6-.4-1.01zm11.88 6.96c-.13 0-.22-.03-.28-.08a.418.418 0 0 1-.11-.18c-.11-.66-.37-1.12-.78-1.4-.41-.28-.92-.42-1.52-.42-.46 0-.88.13-1.24.4s-.54.63-.54 1.09c0 .42.16.76.49 1.04s.92.56 1.79.83c.46.14.89.3 1.28.48s.73.39 1.01.64.5.55.66.91.24.79.24 1.28c0 .42-.08.82-.23 1.2-.15.38-.39.73-.7 1.01-.31.29-.7.52-1.18.7-.47.18-1.04.26-1.69.26-.51 0-1.08-.06-1.72-.18-.6-.11-1.18-.32-1.72-.61-.03-.42-.06-.85-.08-1.31-.02-.46-.04-.92-.04-1.38h.24c.16 0 .3.03.41.08.11.05.18.16.19.28.06.67.32 1.21.78 1.62.46.41 1.09.61 1.91.61.66 0 1.16-.15 1.51-.44s.53-.7.53-1.21c0-.53-.19-.93-.58-1.21s-.95-.53-1.7-.76c-.94-.29-1.68-.66-2.22-1.13s-.8-1.14-.8-2.04c0-.81.33-1.58.91-2.14.29-.27.64-.49 1.06-.65s.88-.24 1.39-.24c.64 0 1.24.08 1.81.25s1.01.35 1.33.54c.04.35.07.7.08 1.04l.02.6c.01.2.01.38.01.54.03 0-.52-.02-.52-.02zm8.43 6.04a.66.66 0 0 1 .2-.14c.04-.01.09-.02.13-.02.14 0 .27.1.38.31a6.1 6.1 0 0 1-1.34 1.13c-.48.29-.99.43-1.54.43-.32 0-.62-.04-.91-.11-.28-.07-.54-.21-.74-.42-.21-.21-.37-.49-.49-.85s-.18-.83-.18-1.4v-6.62h-1.44v-.26c0-.11.02-.22.06-.31.04-.1.12-.14.25-.14.43 0 .78-.11 1.06-.34s.5-.51.67-.86c.19-.38.36-.74.5-1.08.14-.34.3-.5.48-.5h.43v2.5h2.81c0 .34-.04.59-.11.76-.07.17-.2.25-.4.25h-2.3v5.95c0 .51.02.92.07 1.24s.12.55.22.72.21.28.34.32.27.07.43.07c.27 0 .52-.06.76-.18.23-.15.45-.29.66-.45zm11.73.77c.18 0 .27.17.29.5-.42.29-.94.43-1.58.43-.35 0-.66-.05-.91-.16-.24-.09-.46-.24-.65-.42-.17-.17-.31-.38-.41-.6-.1-.22-.16-.46-.19-.7-.4.72-.88 1.21-1.43 1.48-.55.26-1.19.4-1.91.4-.32 0-.66-.03-1.02-.08s-.7-.17-1.02-.35a2.24 2.24 0 0 1-.79-.74c-.21-.32-.31-.74-.31-1.27 0-.59.14-1.09.42-1.5s.64-.74 1.08-1.01c.44-.26.92-.48 1.44-.64s1.02-.3 1.5-.41c.27-.05.52-.1.76-.16.23-.06.44-.12.61-.18.22-.06.36-.15.42-.26s.08-.33.08-.65c0-.75-.14-1.37-.43-1.86s-.8-.73-1.54-.73c-.27 0-.5.03-.7.1-.18.06-.35.16-.48.3-.13.14-.24.32-.34.54-.11.26-.2.52-.29.79-.04.17-.16.31-.32.38-.17.08-.45.18-.85.29-.12.04-.24.07-.36.1s-.24.04-.36.05c-.16 0-.24-.17-.24-.5 0-.35.14-.7.41-1.06.27-.35.62-.66 1.04-.94.43-.28.89-.5 1.38-.66.46-.16.93-.25 1.42-.25.56 0 1.06.05 1.51.14.45.1.83.27 1.15.53s.56.6.73 1.03c.17.43.25.99.25 1.68v4.13c0 .56.02.96.06 1.21s.1.44.18.59c.11.22.24.37.37.44s.27.11.42.11c.18 0 .3-.02.37-.05.09-.02.16-.04.24-.04zm-3.62-4.68-.77.12c-.42.08-.82.18-1.21.29-.37.1-.72.26-1.04.47-.3.2-.55.45-.73.76s-.28.68-.28 1.13c0 .61.16 1.07.47 1.39s.7.48 1.16.48c.64-.01 1.25-.29 1.67-.78.22-.26.4-.56.53-.88.14-.34.2-.7.2-1.1v-1.88z" style="fill-rule:evenodd;clip-rule:evenodd"/>
  <path d="M75.85 9.71c-1.38.58-3.07.24-4.09-1.04-1.01-1.26-1-3.08 0-4.34a3.478 3.478 0 0 1 4.09-1.04c.78.33 1.68.17 2.28-.43l.96-.96c-2.64-2.64-7.02-2.53-9.51.34-2.11 2.42-2.11 6.09 0 8.52 2.5 2.87 6.87 2.98 9.51.34l-.96-.96c-.6-.6-1.5-.76-2.28-.43z"/>
  <path d="M73.41 6.49c0 .59.48 1.08 1.08 1.08.59 0 1.08-.48 1.08-1.08s-.48-1.08-1.08-1.08-1.08.48-1.08 1.08z"/>
</svg>
