<?xml version="1.0" encoding="utf-8"?>
<!-- Generator: Adobe Illustrator 21.0.0, SVG Export Plug-In . SVG Version: 6.00 Build 0)  -->
<svg version="1.1" id="Layer_1" xmlns="http://www.w3.org/2000/svg" xmlns:xlink="http://www.w3.org/1999/xlink" x="0px" y="0px"
	 viewBox="0 0 2592.58 1542" width="2592.58" height="1542" style="enable-background:new 0 0 2592.58 1542;" xml:space="preserve">
<style type="text/css">
	.st0{opacity:0.2;fill:#FFFFFF;}
	.st1{opacity:0.3;fill:#FFFFFF;}
</style>
<path class="st0" d="M1009,0h-1.31C1323.11,193.72,2560.59,1027.03,0,740.64v192.25C386.06,953.83,2772.48,1045.93,1009,0z"/>
<g>
	<path class="st1" d="M1231.72,173.4C1574.29,462.66,1882.71,910.17,0,596.89v36.14C291.41,681.69,2213.32,978.81,1231.72,173.4z"/>
	<path class="st1" d="M999.37,0c90.84,62.81,167.86,120.49,232.35,173.4C1145.71,100.77,1057.55,38.12,1001.38,0H999.37z"/>
</g>
<g>
	<path class="st0" d="M1009.6,0c52.77,31.03,101.91,61.1,147.58,90.24c-56.57-36.99-107.71-67.9-145.95-90.24H1009.6z"/>
	<path class="st0" d="M1157.18,90.24C1593.86,375.75,2353.96,1023.13,0,880.4v106.58C436.17,1003.05,2648.24,1041.71,1157.18,90.24z
		"/>
</g>
<g>
	<path class="st1" d="M1155.53,95.15C1567.13,378.56,2243.31,1000.19,0,859.28v58.87C503.18,942.3,2484.06,986.87,1155.53,95.15z"/>
	<path class="st1" d="M1006.87,0c53.58,32.85,103.07,64.55,148.66,95.15C1098.7,56.02,1046.91,23.34,1008.54,0H1006.87z"/>
</g>
<path class="st0" d="M1019.19,0h-0.1C1401.71,202.13,2958.84,1126.05,0,1385.74V1542h508.76
	C1293.17,1369.43,2754.28,897.36,1019.19,0z"/>
<g>
	<path class="st1" d="M1016.22,0c132.26,71.03,245.42,138.93,341.24,203.84C1227.74,113.21,1098.89,41.41,1019.81,0H1016.22z"/>
	<path class="st1" d="M1357.46,203.84C1864.27,557.93,2384.22,1199.63,0,1441.1v70.13
		C331.95,1476.07,2795.48,1177.85,1357.46,203.84z"/>
</g>
<g>
	<path class="st0" d="M1020.52,0c248.92,126.63,433.48,245.49,564.72,356.79C1400.21,191.88,1154.26,61.79,1026.67,0H1020.52z"/>
	<path class="st0" d="M1585.24,356.79C1972.1,701.58,2092.65,1198.61,308.39,1542h427.33
		C1403.9,1357.23,2312.02,973.09,1585.24,356.79z"/>
</g>
<g>
	<path class="st1" d="M1011.25,0c187.69,107.77,333.99,206.25,444.73,296.22C1299.96,164.7,1115.39,55.43,1015.3,0H1011.25z"/>
	<path class="st1" d="M1455.98,296.22C1868.89,644.28,2081.85,1148.18,0,1222.61v24.6C312.93,1240.06,2517.7,1158.74,1455.98,296.22
		z"/>
</g>
<path class="st0" d="M2094.09,1542h498.49V812.6C2333.88,581.02,1867.73,304.88,1048.77,0h-10.53
	C1433.35,167.35,2871.24,844.45,2094.09,1542z"/>
<g>
	<path class="st1" d="M2262.03,1542h175.48c166.63-235.64,342.94-829.9-1315.84-1509.98C1621.68,241.63,2947.62,882.73,2262.03,1542
		z"/>
	<path class="st1" d="M1042.34,0c26.89,10.7,53.33,21.37,79.32,32.02c-28.99-12.15-55.2-22.85-78.08-32.02H1042.34z"/>
</g>
<path class="st1" d="M2025.63,1542h171.21C2922.72,863.78,1438.45,169.89,1037.81,0h-6.71
	C2845.58,810.85,2255.06,1382.77,2025.63,1542z"/>
<path class="st0" d="M2592.58,794.4C2319.91,568.41,1850.62,296.66,1049.37,0h-1.01c294.7,112.01,1126.25,452.08,1544.21,869.08
	V794.4z"/>
<g>
	<path class="st1" d="M1044.57,0c21.16,8.23,42.05,16.45,62.67,24.66c-22.45-9.16-43.05-17.39-61.52-24.66H1044.57z"/>
	<path class="st1" d="M2390.38,1542h107.37c169.82-251.69,302.86-843.2-1390.52-1517.34C1586.92,220.41,2911.96,841.08,2390.38,1542
		z"/>
</g>
<path class="st1" d="M2592.58,552.36C2285.08,404.8,1744.59,170.86,1097.23,0h-9.33c289.89,81.08,957.08,283.57,1504.68,568.57
	V552.36z"/>
<g>
	<path class="st1" d="M1026.01,0c159.07,75.4,297.96,148.62,418.86,219.52c-166.52-100.2-322.16-176.54-415-219.52H1026.01z"/>
	<path class="st1" d="M1783.09,1542h64.37c183.98-110.11,838.98-594.42-402.59-1322.48C1956.42,527.31,2570.71,1060.16,1783.09,1542
		z"/>
</g>
</svg>
