<svg version="1.1" id="Ebene_1" xmlns="http://www.w3.org/2000/svg" xmlns:xlink="http://www.w3.org/1999/xlink" x="0px" y="0px"
     viewBox="0 0 195 78" style="enable-background:new 0 0 195 78;" xml:space="preserve">
<style type="text/css">
	.st0{fill:#ffffff;}
</style>
  <g>
<path class="st0" d="M59.5,55.1v-4.9l1.9-1.9h6.8V50H62l-0.7,0.7v3.8l0.7,0.7h6.2V57h-6.8C61.4,57,59.5,55.1,59.5,55.1z M69.1,50.7H75V57h-5.9
	C69.1,57,69.1,50.7,69.1,50.7z M73.4,55.5v-3.2h-2.7v3.2H73.4z M78.9,52.7v2.8h1.9V57h-4.9v-1.6h1.3v-3.6l1.1-1.1h2.9v1.6h-2
	C79.2,52.3,78.9,52.7,78.9,52.7z M83.6,54.5v0.6l0.4,0.4h3.9V57h-4.6l-1.1-1.1v-4.1l1.1-1.1h3.5l1.1,1.1v2.7
	C87.9,54.5,83.6,54.5,83.6,54.5z M86.3,52.5L86,52.1h-2l-0.4,0.4v0.7h2.7C86.3,53.2,86.3,52.5,86.3,52.5z M89,48.3h9.7l1.9,1.9V57
	h-1.7v-6.2l-0.7-0.7h-2.4V57H94v-6.9h-3.2V57H89C89,57,89,48.3,89,48.3z M103.4,54.5v0.6l0.4,0.4h3.9V57H103l-1.1-1.1v-4.1l1.1-1.1
	h3.5l1.1,1.1v2.7C107.6,54.5,103.4,54.5,103.4,54.5z M106.1,52.5l-0.4-0.4h-2l-0.4,0.4v0.7h2.7v-0.7C106,52.5,106.1,52.5,106.1,52.5
	z M108.6,55.9v-4.1l1.1-1.1h3.1v-2.4h1.6V57h-4.8C109.6,57,108.6,55.9,108.6,55.9z M110.6,52.2l-0.4,0.4v2.5l0.4,0.4h2.3v-3.2h-2.3
	C110.6,52.3,110.6,52.2,110.6,52.2z M115.4,55.4h1.7v-3.1H116v-1.6h2.8v4.7h1.6V57h-5C115.4,57,115.4,55.4,115.4,55.4z M117.1,48.3
	h1.7v1.5h-1.7V48.3z M121.1,54.3l1.1-1.1h3.1v-0.6l-0.4-0.4H121v-1.5h4.6l1.1,1.1V57H121C121,57,121.1,54.3,121.1,54.3z M122.9,54.6
	l-0.4,0.4v0.6h2.7v-1C125.2,54.6,122.9,54.6,122.9,54.6z M134.1,48.3h1.8V57h-1.8V48.3z M141.5,52.7l-0.4-0.4H139V57h-1.7v-6.3h4.8
	l1.1,1.1V57h-1.7L141.5,52.7L141.5,52.7z M144.2,55.5h3.7l0.4-0.4v-0.6h-4.1v-2.8l1.1-1.1h4.6v1.5h-3.7l-0.4,0.4v0.6h4.1v2.8
	l-1.1,1.1h-4.6V55.5z M150.6,55.4h1.7v-3.1h-1.2v-1.6h2.8v4.7h1.6V57h-5L150.6,55.4L150.6,55.4z M152.4,48.3h1.7v1.5h-1.7V48.3z
	 M156.4,55.9v-4.1l1.1-1.1h3.1v-2.4h1.6V57h-4.8L156.4,55.9L156.4,55.9z M158.4,52.2l-0.4,0.4v2.5l0.4,0.4h2.3v-3.2h-2.3
	C158.4,52.3,158.4,52.2,158.4,52.2z M165,54.5v0.6l0.4,0.4h3.9V57h-4.6l-1.1-1.1v-4.1l1.1-1.1h3.5l1.1,1.1v2.7L165,54.5L165,54.5z
	 M167.7,52.5l-0.4-0.4h-2l-0.4,0.4v0.7h2.7L167.7,52.5L167.7,52.5z M15,20c-3.9,0-7,3.1-7,7s3.1,7,7,7h7v-7C22,23.1,18.9,20,15,20z
	 M8,43c0,3.9,3.1,7,7,7s7-3.1,7-7v-7h-7C11.1,36,8,39.1,8,43z M31,36h-7v7c0,3.9,3.1,7,7,7s7-3.1,7-7S34.9,36,31,36z M38,27
	c0-3.9-3.1-7-7-7s-7,3.1-7,7v7h7C34.9,34,38,30.9,38,27z M64.8,44.4h-3.3v-2.1c-0.3,0.2-0.7,0.5-1.2,0.8L58.8,44
	c-0.6,0.3-1.2,0.5-1.9,0.7S55.3,45,54.4,45c-1.8,0-3.3-0.6-4.5-1.8s-1.8-2.7-1.8-4.5c0-1.5,0.3-2.7,1-3.6s1.5-1.6,2.7-2.2
	c1.2-0.5,2.6-0.9,4.3-1.1s3.5-0.3,5.4-0.4v-0.5c0-0.8-0.1-1.4-0.4-1.9s-0.6-0.9-1.1-1.2c-0.5-0.3-1-0.5-1.7-0.5s-1.3-0.1-2.1-0.1
	c-0.9,0-1.8,0.1-2.9,0.3s-2.2,0.6-3.3,1h-0.2v-3.4c0.6-0.2,1.6-0.4,2.8-0.6s2.4-0.3,3.6-0.3c1.4,0,2.6,0.1,3.6,0.3s1.9,0.6,2.7,1.2
	c0.7,0.5,1.3,1.2,1.7,2.1c0.4,0.9,0.6,1.9,0.6,3.2C64.8,31,64.8,44.4,64.8,44.4z M61.5,39.5V34c-1,0.1-2.2,0.1-3.6,0.3
	s-2.4,0.3-3.2,0.5c-0.9,0.3-1.7,0.7-2.3,1.3s-0.9,1.4-0.9,2.3c0,1.1,0.3,2,1,2.5s1.7,0.9,3.1,0.9c1.2,0,2.2-0.2,3.2-0.7
	S60.7,40.2,61.5,39.5z M87.5,44.4h-3.3v-2.2c-1.1,0.9-2.2,1.6-3.2,2s-2.1,0.7-3.4,0.7c-2.1,0-3.7-0.6-4.8-1.9S71,39.9,71,37.5V24.7
	h3.3v11.2c0,1,0,1.8,0.1,2.6s0.3,1.3,0.6,1.8s0.7,0.9,1.2,1.1s1.2,0.4,2.2,0.4c0.9,0,1.8-0.2,2.8-0.7s2-1,2.8-1.7V24.7h3.3v19.7
	H87.5z M106.2,28.3H106c-0.5-0.1-1-0.2-1.4-0.3s-1-0.1-1.6-0.1c-1,0-2,0.2-3,0.7s-1.9,1-2.7,1.7v13.9H94V24.7h3.3v2.9
	c1.3-1.1,2.5-1.8,3.5-2.2s2-0.7,3.1-0.7h1.2c0.2,0,0.6,0.1,1.2,0.2C106.3,24.9,106.2,28.3,106.2,28.3z M126.1,34.6
	c0,3.2-0.8,5.7-2.5,7.6S119.8,45,117,45s-5-0.9-6.6-2.8s-2.5-4.4-2.5-7.6s0.8-5.7,2.5-7.6s3.8-2.8,6.6-2.8s5,0.9,6.6,2.8
	S126.1,31.4,126.1,34.6z M122.7,34.6c0-2.5-0.5-4.4-1.5-5.7S118.8,27,117,27s-3.2,0.6-4.2,1.9s-1.5,3.1-1.5,5.7
	c0,2.5,0.5,4.3,1.5,5.6s2.4,1.9,4.2,1.9c1.8,0,3.1-0.6,4.1-1.9S122.7,37.1,122.7,34.6z M143.4,28.3h-0.2c-0.5-0.1-1-0.2-1.4-0.3
	s-1-0.1-1.6-0.1c-1,0-2,0.2-3,0.7s-1.9,1-2.7,1.7v13.9h-3.3V24.7h3.3v2.9c1.3-1.1,2.5-1.8,3.5-2.2s2-0.7,3.1-0.7h1.2
	c0.2,0,0.6,0.1,1.2,0.2v3.4C143.5,28.3,143.4,28.3,143.4,28.3z M161.2,44.4h-3.3v-2.1c-0.3,0.2-0.7,0.5-1.2,0.8l-1.5,0.9
	c-0.6,0.3-1.2,0.5-1.9,0.7s-1.6,0.3-2.5,0.3c-1.8,0-3.3-0.6-4.5-1.8s-1.8-2.7-1.8-4.5c0-1.5,0.3-2.7,1-3.6s1.5-1.6,2.7-2.2
	c1.2-0.5,2.6-0.9,4.3-1.1s3.5-0.3,5.4-0.4v-0.5c0-0.8-0.1-1.4-0.4-1.9s-0.6-0.9-1.1-1.2c-0.5-0.3-1-0.5-1.7-0.5s-1.3-0.1-2.1-0.1
	c-0.9,0-1.8,0.1-2.9,0.3s-2.2,0.6-3.3,1h-0.2v-3.4c0.6-0.2,1.6-0.4,2.8-0.6s2.4-0.3,3.6-0.3c1.4,0,2.6,0.1,3.6,0.3s1.9,0.6,2.7,1.2
	c0.7,0.5,1.3,1.2,1.7,2.1s0.6,1.9,0.6,3.2L161.2,44.4L161.2,44.4z M157.9,39.5V34c-1,0.1-2.2,0.1-3.6,0.3s-2.4,0.3-3.2,0.5
	c-0.9,0.3-1.7,0.7-2.3,1.3s-0.9,1.4-0.9,2.3c0,1.1,0.3,2,1,2.5s1.7,0.9,3.1,0.9c1.2,0,2.2-0.2,3.2-0.7S157.1,40.2,157.9,39.5z"/>
</g>
  <g>
	<path class="st0" d="M185.72,52.64c-2.26,0.95-5.01,0.39-6.67-1.7c-1.64-2.05-1.64-5.02,0-7.07c1.67-2.09,4.42-2.65,6.67-1.7
		c1.27,0.54,2.74,0.28,3.72-0.7L191,39.9c-4.31-4.31-11.45-4.13-15.52,0.55c-3.44,3.95-3.44,9.94,0,13.89
		c4.07,4.68,11.2,4.87,15.52,0.55l-1.56-1.56C188.46,52.36,186.99,52.1,185.72,52.64L185.72,52.64z"/>
    <path class="st0" d="M181.74,47.38c0,0.97,0.79,1.76,1.76,1.76s1.76-0.79,1.76-1.76c0-0.97-0.79-1.76-1.76-1.76S181.74,46.41,181.74,47.38z"/>
</g>
</svg>
