<?xml version="1.0" encoding="UTF-8"?>
<svg enable-background="new 0 0 85.04 85.04"
     version="1.1"
     viewBox="0 0 85.04 85.04"
     xml:space="preserve"
     xmlns="http://www.w3.org/2000/svg">
<style type="text/css">
	.st0{fill:#FFFFFF;}
</style>
	<path class="st0" d="M74.58,14.61v8.2h-2.14v-7.67l-0.88-0.85h-3.05v8.51h-2.15V14.3h-3.95v8.51h-2.15V12.1h11.95   C64.55,4.62,54.08,0,42.52,0C19.04,0,0,19.04,0,42.52s19.04,42.52,42.52,42.52S85.04,66,85.04,42.52   C85.04,31.83,81.09,22.08,74.58,14.61z M60.26,31.96H35.02l-2.89,2.89v15.34l2.89,2.89h25.24v7.11H32.38l-7.59-7.59V32.45   l7.59-7.59h27.88V31.96z"/>
</svg>
