<?xml version="1.0" encoding="utf-8"?>
<svg version="1.1" xmlns="http://www.w3.org/2000/svg">
  <style type="text/css">
    @media screen {
    #small {
    display: initial;
    }
    #medium, #large {
    display: none;
    }
    }
    @media screen and (min-width: 24px) {
    #small {
    display: none;
    }
    #medium {
    display: initial;
    }
    }
    @media screen and (min-width: 32px) {
    #medium {
    display: none;
    }
    #large {
    display: initial;
    }
    }
  </style>
  <svg id="small" enable-background="new 0 0 16 16" version="1.1" viewBox="0 0 16 16" xml:space="preserve" xmlns="http://www.w3.org/2000/svg">
    <polygon class="st0" points="14,12 14,10 12,10 12,12 10,12 10,14 12,14 12,16 14,16 14,14 16,14 16,12 	"/>
    <path class="st0" d="M10,6c0,0-1,3-2,3S6,6,6,6H5c0,0,1,4,3,4s3-4,3-4H10z"/>
    <polygon class="st0" points="4,5 12,5 12,9 13,9 13,3 3,3 3,15 9,15 9,13 4,13 	"/>
    <rect x="3" y="1" class="st0" width="10" height="1"/>
  </svg>
  <svg id="medium" enable-background="new 0 0 24 24" version="1.1" viewBox="0 0 24 24" xml:space="preserve" xmlns="http://www.w3.org/2000/svg">
<rect x="4" y="1" class="st0" width="16" height="2"/>
    <path class="st0" d="M12,14c-2.5,0-3.5-5-3.5-5H7c0,0,1.5,6.5,5,6.5S17,9,17,9h-1.5C15.5,9,14.5,14,12,14z"/>
    <polygon class="st0" points="13,20 6,20 6,8 18,8 18,13 20,13 20,4 4,4 4,23 13,23 17,23 17,21 13,21     "/>
    <polygon class="st0" points="20,18 20,14 18,14 18,18 14,18 14,20 18,20 18,24 20,24 20,20 24,20 24,18   "/>
  </svg>
  <svg id="large" enable-background="new 0 0 32 32" version="1.1" viewBox="0 0 32 32" xml:space="preserve" xmlns="http://www.w3.org/2000/svg">
    <rect x="5" y="1" class="st0" width="22" height="2"/>
    <path class="st0" d="M16,18c-3.63,0-5-7-5-7H9c0,0,2,9,7,9s7-9,7-9h-2C21,11,19.63,18,16,18z"/>
    <polygon class="st0" points="18,26 7,26 7,9 25,9 25,18 27,18 27,5 5,5 5,31 18,31 23,31 23,28 18,28 	"/>
    <polygon class="st0" points="27,24 27,19 24,19 24,24 19,24 19,27 24,27 24,32 27,32 27,27 32,27 32,24 	"/>
  </svg>
</svg>
