<svg xmlns="http://www.w3.org/2000/svg" xmlns:xlink="http://www.w3.org/1999/xlink">
<style>
	.crisp, rect {
	  shape-rendering: crispedges;
	}
	g { display: none;}
	g:target {display: block;}
</style>
<symbol id="play-button" viewBox="0 0 500 500">
	<title>play</title>
	<circle class="crisp" fill="currentColor" opacity="0.4" cx="250" cy="250" r="250"/>
        <path class="crisp" d="M250,0C111.93,0,0,111.93,0,250c0,138.07,111.93,250,250,250c138.07,0,250-111.93,250-250
                C500,111.93,388.07,0,250,0z M250,465.28c-118.88,0-215.28-96.4-215.28-215.28c0-118.88,96.4-215.28,215.28-215.28
                c118.88,0,215.28,96.39,215.28,215.28C465.28,368.88,368.88,465.28,250,465.28z"/>
        <polygon  points="177.08,126.85 177.08,247.45 177.08,368.06 375.37,247.45 "/>
</symbol>
</svg>